<?xml version="1.0" encoding="UTF-8" standalone="no"?>
<!-- Generator: Adobe Illustrator 13.0.2, SVG Export Plug-In . SVG Version: 6.00 Build 14948)  -->

<svg
   xmlns:dc="http://purl.org/dc/elements/1.1/"
   xmlns:cc="http://creativecommons.org/ns#"
   xmlns:rdf="http://www.w3.org/1999/02/22-rdf-syntax-ns#"
   xmlns:svg="http://www.w3.org/2000/svg"
   xmlns="http://www.w3.org/2000/svg"
   xmlns:sodipodi="http://sodipodi.sourceforge.net/DTD/sodipodi-0.dtd"
   xmlns:inkscape="http://www.inkscape.org/namespaces/inkscape"
   version="1.0"
   id="Layer_1"
   x="0px"
   y="0px"
   width="64px"
   height="64px"
   viewBox="5.5 -3.5 64 64"
   enable-background="new 5.5 -3.5 64 64"
   xml:space="preserve"
   inkscape:version="0.91 r13725"
   sodipodi:docname="cc.svg"><metadata
     id="metadata3459"><rdf:RDF><cc:Work
         rdf:about=""><dc:format>image/svg+xml</dc:format><dc:type
           rdf:resource="http://purl.org/dc/dcmitype/StillImage" /></cc:Work></rdf:RDF></metadata><defs
     id="defs3457" /><sodipodi:namedview
     pagecolor="#ffffff"
     bordercolor="#666666"
     borderopacity="1"
     objecttolerance="10"
     gridtolerance="10"
     guidetolerance="10"
     inkscape:pageopacity="0"
     inkscape:pageshadow="2"
     inkscape:window-width="640"
     inkscape:window-height="480"
     id="namedview3455"
     showgrid="false"
     inkscape:zoom="3.6875"
     inkscape:cx="-1.8983051"
     inkscape:cy="32"
     inkscape:window-x="0"
     inkscape:window-y="0"
     inkscape:window-maximized="0"
     inkscape:current-layer="Layer_1" /><g
     id="g3449"><path
       d="m 37.442382,-3.4990235 c -8.876,0 -16.362031,3.1064531 -22.45703,9.3144531 -3.085001,3.0859999 -5.4376411,6.5813284 -7.0566411,10.4863274 -1.619,3.905001 -2.4277344,7.970219 -2.4277344,12.199219 0,4.267001 0.8003906,8.323875 2.4003906,12.171875 1.6,3.848 3.9329999,7.305094 6.9999999,10.371094 3.067,3.066001 6.53439,5.409343 10.40039,7.027344 3.867001,1.621 7.914578,2.427734 12.142578,2.427734 4.228001,0 8.324157,-0.817078 12.285157,-2.455078 3.963,-1.637999 7.505907,-4.00289 10.628906,-7.087891 3.008001,-2.933 5.285125,-6.314577 6.828125,-10.142578 1.541,-3.826999 2.3125,-7.9315 2.3125,-12.3125 0,-4.343 -0.78275,-8.447453 -2.34375,-12.314453 -1.561999,-3.865999 -3.847468,-7.3054525 -6.855469,-10.3144527 -6.285,-6.247 -13.906421,-9.3710938 -22.857422,-9.3710938 z m 0.115235,5.7714844 c 7.238,0 13.428218,2.5718437 18.574218,7.7148436 2.474,2.4780005 4.359344,5.2969855 5.652344,8.4589845 1.295001,3.162001 1.94336,6.51364 1.94336,10.05664 0,7.354 -2.494375,13.467751 -7.484375,18.34375 -2.592,2.514001 -5.493891,4.436484 -8.712891,5.771485 -3.223,1.334001 -6.544655,1.998046 -9.972656,1.998046 -3.467,0 -6.78236,-0.656703 -9.94336,-1.970703 -3.164,-1.316 -5.999672,-3.218843 -8.513672,-5.714843 -2.515,-2.495001 -4.44778,-5.332626 -5.80078,-8.515625 -1.354,-3.179001 -2.029297,-6.483109 -2.029297,-9.91211 0,-3.466999 0.675297,-6.791656 2.029297,-9.972656 1.352,-3.181 3.28578,-6.04661 5.80078,-8.5996085 4.991,-5.1040005 11.143032,-7.6582036 18.457032,-7.6582036 z M 28.641601,18.561523 c -2.706,0 -4.943843,0.895547 -6.714844,2.685547 -1.771,1.791 -2.65625,4.209812 -2.65625,7.257812 0,3.123001 0.874953,5.5605 2.626953,7.3125 1.752,1.754 4.059016,2.628907 6.916016,2.628907 1.791,0 3.430062,-0.44775 4.914063,-1.34375 1.485999,-0.895001 2.648328,-2.122546 3.486328,-3.685547 l -3.94336,-2 c -0.762999,1.828001 -2.076359,2.742187 -3.943359,2.742187 -1.41,0 -2.477172,-0.513969 -3.201172,-1.542969 -0.723,-1.029 -1.085937,-2.399281 -1.085937,-4.113281 0,-3.771999 1.43111,-5.65625 4.287109,-5.65625 0.572,0 1.190423,0.190313 1.857422,0.570313 0.666,0.381 1.227547,1.049 1.685547,2 l 4.287109,-2.228516 c -1.714999,-3.085999 -4.552625,-4.628953 -8.515625,-4.626953 z m 18.513672,0 c -2.704999,0 -4.942891,0.895547 -6.712891,2.685547 -1.773,1.791 -2.658203,4.209812 -2.658203,7.257812 0,3.123001 0.867517,5.5605 2.603516,7.3125 1.732,1.754 4.043453,2.628907 6.939453,2.628907 1.752001,0 3.371423,-0.44775 4.857422,-1.34375 1.484001,-0.895001 2.666015,-2.122546 3.541015,-3.685547 l -4,-2 c -0.761,1.828001 -2.076405,2.742187 -3.941406,2.742187 -1.411999,0 -2.478172,-0.513969 -3.201172,-1.542969 -0.722999,-1.029 -1.085937,-2.399281 -1.085937,-4.113281 0,-3.771999 1.430109,-5.65625 4.287109,-5.65625 0.607,0 1.246063,0.190313 1.914063,0.570313 0.666001,0.381 1.2305,1.049 1.6875,2 l 4.228515,-2.228516 c -1.674999,-3.085999 -4.496983,-4.628953 -8.458984,-4.626953 z"
       id="path3453"
       inkscape:connector-curvature="0" /></g></svg>
