<?xml version="1.0" encoding="UTF-8" standalone="no"?>
<!-- Generator: Adobe Illustrator 13.0.2, SVG Export Plug-In . SVG Version: 6.00 Build 14948)  -->

<svg
   xmlns:dc="http://purl.org/dc/elements/1.1/"
   xmlns:cc="http://creativecommons.org/ns#"
   xmlns:rdf="http://www.w3.org/1999/02/22-rdf-syntax-ns#"
   xmlns:svg="http://www.w3.org/2000/svg"
   xmlns="http://www.w3.org/2000/svg"
   xmlns:sodipodi="http://sodipodi.sourceforge.net/DTD/sodipodi-0.dtd"
   xmlns:inkscape="http://www.inkscape.org/namespaces/inkscape"
   version="1.0"
   id="Layer_1"
   x="0px"
   y="0px"
   width="64px"
   height="64px"
   viewBox="5.5 -3.5 64 64"
   enable-background="new 5.5 -3.5 64 64"
   xml:space="preserve"
   inkscape:version="0.91 r13725"
   sodipodi:docname="nc-eu.svg"><metadata
     id="metadata13"><rdf:RDF><cc:Work
         rdf:about=""><dc:format>image/svg+xml</dc:format><dc:type
           rdf:resource="http://purl.org/dc/dcmitype/StillImage" /></cc:Work></rdf:RDF></metadata><defs
     id="defs11" /><sodipodi:namedview
     pagecolor="#ffffff"
     bordercolor="#666666"
     borderopacity="1"
     objecttolerance="10"
     gridtolerance="10"
     guidetolerance="10"
     inkscape:pageopacity="0"
     inkscape:pageshadow="2"
     inkscape:window-width="640"
     inkscape:window-height="480"
     id="namedview9"
     showgrid="false"
     inkscape:zoom="3.6875"
     inkscape:cx="7.8644068"
     inkscape:cy="32"
     inkscape:window-x="0"
     inkscape:window-y="0"
     inkscape:window-maximized="0"
     inkscape:current-layer="Layer_1" /><g
     id="g3"><path
       d="M 31.958984 0 C 23.093984 0 15.592172 3.0912969 9.4511719 9.2792969 C 3.1491719 15.680297 0 23.252 0 32 C 0 40.745 3.1491719 48.266594 9.4511719 54.558594 C 15.752172 60.854594 23.252984 64 31.958984 64 C 40.767984 64 48.404234 60.824516 54.865234 54.478516 C 60.954234 48.451516 64 40.959 64 32 C 63.999 23.039 60.901078 15.464297 54.705078 9.2792969 C 48.512078 3.0932969 40.927984 0 31.958984 0 z M 32.039062 5.7578125 C 39.299062 5.7578125 45.469969 8.3165 50.542969 13.4375 C 55.666969 18.5035 58.228516 24.69 58.228516 32 C 58.228516 34.407 57.957969 36.678312 57.417969 38.820312 L 39.851562 31.044922 L 40.330078 31.044922 L 40.330078 27.242188 L 31.259766 27.242188 L 27.574219 25.611328 C 27.891219 24.898328 28.267078 24.260719 28.705078 23.761719 C 30.366078 21.722719 32.722922 20.867188 35.294922 20.867188 C 37.651922 20.867188 39.848234 21.563344 41.240234 22.152344 L 42.740234 16.044922 C 40.810234 15.189922 37.972078 14.439453 34.705078 14.439453 C 29.670078 14.439453 25.384078 16.474344 22.330078 19.902344 C 21.652078 20.685344 21.06425 21.563187 20.53125 22.492188 L 10.007812 17.835938 C 11.027812 16.306938 12.226234 14.8385 13.615234 13.4375 C 18.636234 8.3175 24.775062 5.7578125 32.039062 5.7578125 z M 7.1757812 23.488281 L 15.654297 27.242188 L 15.042969 27.242188 L 15.042969 31.046875 L 18.044922 31.046875 C 18.044922 31.584875 17.990234 32.119297 17.990234 32.654297 L 17.990234 33.566406 L 15.042969 33.566406 L 15.042969 37.369141 L 18.523438 37.369141 C 19.006438 40.209141 20.078437 42.512984 21.523438 44.333984 C 24.523438 48.298984 29.346703 50.439453 34.595703 50.439453 C 38.025703 50.439453 41.127172 49.423297 42.951172 48.404297 L 41.664062 42.460938 C 40.539062 43.049937 38.023547 43.851562 35.560547 43.851562 C 32.880547 43.851562 30.365391 43.048141 28.650391 41.119141 C 27.847391 40.209141 27.257812 38.975141 26.882812 37.369141 L 38.529297 37.369141 L 55.078125 44.695312 C 53.933125 46.725313 52.478219 48.602313 50.699219 50.320312 C 45.413219 55.546312 39.191062 58.15625 32.039062 58.15625 C 24.883063 58.15625 18.714156 55.570484 13.535156 50.396484 C 8.3561562 45.222484 5.765625 39.089047 5.765625 31.998047 C 5.765625 28.998047 6.2397813 26.161281 7.1757812 23.488281 z M 29.816406 33.511719 L 29.9375 33.564453 L 29.886719 33.564453 L 29.816406 33.511719 z "
       transform="translate(5.5,-3.5)"
       id="path7" /></g></svg>
