<?xml version="1.0" encoding="UTF-8" standalone="no"?>
<!-- Generator: Adobe Illustrator 13.0.2, SVG Export Plug-In . SVG Version: 6.00 Build 14948)  -->

<svg
   xmlns:dc="http://purl.org/dc/elements/1.1/"
   xmlns:cc="http://creativecommons.org/ns#"
   xmlns:rdf="http://www.w3.org/1999/02/22-rdf-syntax-ns#"
   xmlns:svg="http://www.w3.org/2000/svg"
   xmlns="http://www.w3.org/2000/svg"
   xmlns:sodipodi="http://sodipodi.sourceforge.net/DTD/sodipodi-0.dtd"
   xmlns:inkscape="http://www.inkscape.org/namespaces/inkscape"
   version="1.0"
   id="Layer_1"
   x="0px"
   y="0px"
   width="64px"
   height="64px"
   viewBox="5.5 -3.5 64 64"
   enable-background="new 5.5 -3.5 64 64"
   xml:space="preserve"
   inkscape:version="0.91 r13725"
   sodipodi:docname="nc-jp.svg"><metadata
     id="metadata13"><rdf:RDF><cc:Work
         rdf:about=""><dc:format>image/svg+xml</dc:format><dc:type
           rdf:resource="http://purl.org/dc/dcmitype/StillImage" /></cc:Work></rdf:RDF></metadata><defs
     id="defs11" /><sodipodi:namedview
     pagecolor="#ffffff"
     bordercolor="#666666"
     borderopacity="1"
     objecttolerance="10"
     gridtolerance="10"
     guidetolerance="10"
     inkscape:pageopacity="0"
     inkscape:pageshadow="2"
     inkscape:window-width="1065"
     inkscape:window-height="678"
     id="namedview9"
     showgrid="false"
     inkscape:zoom="3.6875"
     inkscape:cx="-26.033898"
     inkscape:cy="32"
     inkscape:window-x="0"
     inkscape:window-y="0"
     inkscape:window-maximized="0"
     inkscape:current-layer="Layer_1" /><g
     id="g3"
     transform="translate(5.5,-3.5)"><path
       d="M 31.957031 0 C 23.094031 0 15.592125 3.0932969 9.453125 9.2792969 C 3.150125 15.680297 0 23.253 0 32 C 0 40.746 3.150125 48.267547 9.453125 54.560547 C 15.752125 60.853547 23.254031 64 31.957031 64 C 40.769031 64 48.407187 60.827469 54.867188 54.480469 C 60.956187 48.454469 64 40.959 64 32 C 64 23.04 60.901031 15.466297 54.707031 9.2792969 C 48.511031 3.0932969 40.931031 1.1842379e-15 31.957031 0 z M 32.039062 5.7597656 C 39.299062 5.7597656 45.469969 8.3194532 50.542969 13.439453 C 55.668969 18.506453 58.230469 24.692 58.230469 32 C 58.230469 34.707 57.887984 37.241422 57.208984 39.607422 L 44.183594 33.808594 L 44.183594 31.517578 L 39.205078 31.517578 L 47.330078 16.548828 L 38.837891 16.548828 L 33.242188 28.9375 L 30.273438 27.615234 L 25.160156 16.548828 L 16.669922 16.548828 L 20.193359 23.126953 L 9.6289062 18.421875 C 10.726906 16.680875 12.051234 15.019453 13.615234 13.439453 C 18.635234 8.3194532 24.775062 5.7597656 32.039062 5.7597656 z M 6.9316406 24.222656 L 23.314453 31.517578 L 19.710938 31.517578 L 19.710938 36.498047 L 27.205078 36.498047 L 27.939453 38.019531 L 27.939453 40.433594 L 19.710938 40.433594 L 19.710938 45.414062 L 27.939453 45.414062 L 27.939453 52.648438 L 35.902344 52.648438 L 35.902344 45.414062 L 44.183594 45.414062 L 44.183594 40.810547 L 54.630859 45.462891 C 53.560859 47.201891 52.252172 48.822313 50.701172 50.320312 C 45.414172 55.547313 39.192063 58.158203 32.039062 58.158203 C 24.883063 58.158203 18.716109 55.572436 13.537109 50.398438 C 8.3571098 45.227438 5.7675781 39.093 5.7675781 32 C 5.7675781 29.272 6.1586406 26.681656 6.9316406 24.222656 z M 36.279297 37.292969 L 43.337891 40.433594 L 35.904297 40.433594 L 35.904297 38.019531 L 36.279297 37.292969 z "
       id="path7" /></g></svg>
