<?xml version="1.0" encoding="UTF-8" standalone="no"?>
<!-- Generator: Adobe Illustrator 13.0.2, SVG Export Plug-In . SVG Version: 6.00 Build 14948)  -->

<svg
   xmlns:dc="http://purl.org/dc/elements/1.1/"
   xmlns:cc="http://creativecommons.org/ns#"
   xmlns:rdf="http://www.w3.org/1999/02/22-rdf-syntax-ns#"
   xmlns:svg="http://www.w3.org/2000/svg"
   xmlns="http://www.w3.org/2000/svg"
   xmlns:sodipodi="http://sodipodi.sourceforge.net/DTD/sodipodi-0.dtd"
   xmlns:inkscape="http://www.inkscape.org/namespaces/inkscape"
   version="1.0"
   id="Layer_1"
   x="0px"
   y="0px"
   width="64px"
   height="64px"
   viewBox="5.5 -3.5 64 64"
   enable-background="new 5.5 -3.5 64 64"
   xml:space="preserve"
   inkscape:version="0.91 r13725"
   sodipodi:docname="nc.svg"><metadata
     id="metadata15"><rdf:RDF><cc:Work
         rdf:about=""><dc:format>image/svg+xml</dc:format><dc:type
           rdf:resource="http://purl.org/dc/dcmitype/StillImage" /></cc:Work></rdf:RDF></metadata><defs
     id="defs13" /><sodipodi:namedview
     pagecolor="#ffffff"
     bordercolor="#666666"
     borderopacity="1"
     objecttolerance="10"
     gridtolerance="10"
     guidetolerance="10"
     inkscape:pageopacity="0"
     inkscape:pageshadow="2"
     inkscape:window-width="640"
     inkscape:window-height="480"
     id="namedview11"
     showgrid="false"
     inkscape:zoom="3.6875"
     inkscape:cx="32"
     inkscape:cy="32"
     inkscape:window-x="0"
     inkscape:window-y="0"
     inkscape:window-maximized="0"
     inkscape:current-layer="Layer_1" /><g
     id="g3"><g
       id="g7"><path
         d="M 31.941406 0 C 23.103406 0 15.600688 3.0868125 9.4296875 9.2578125 C 3.1446875 15.657812 0 23.238 0 32 C 0 40.725 3.1446875 48.228625 9.4296875 54.515625 C 15.752687 60.838625 23.255406 64 31.941406 64 C 40.740406 64 48.380469 60.819031 54.855469 54.457031 C 60.952469 48.475031 64 40.992 64 32 C 64 23.009 60.893547 15.427859 54.685547 9.2558594 C 48.513547 3.0848594 40.931406 0 31.941406 0 z M 32.056641 5.7148438 C 39.330641 5.7148437 45.505266 8.2847344 50.572266 13.427734 C 55.676266 18.457734 58.228516 24.648953 58.228516 32.001953 C 58.228516 34.325953 57.962734 36.609422 57.427734 38.857422 L 41.029297 31.544922 L 35.886719 29.259766 L 33.085938 28.001953 L 29.029297 26.171875 C 28.839297 25.904875 28.744141 25.638094 28.744141 25.371094 C 28.744141 24.457094 29.135016 23.810688 29.916016 23.429688 C 30.696016 23.049688 31.581266 22.857422 32.572266 22.857422 C 34.439266 22.857422 36.265594 23.485187 38.058594 24.742188 L 42.230469 20.457031 C 39.830469 18.629031 37.164469 17.639328 34.230469 17.486328 L 34.230469 12.570312 L 30.515625 12.570312 L 30.515625 17.486328 C 28.533625 17.601328 26.798453 18.162875 25.314453 19.171875 C 23.827453 20.180875 22.818156 21.523219 22.285156 23.199219 L 10.056641 17.714844 C 11.160641 16.113844 12.341609 14.685734 13.599609 13.427734 C 18.628609 8.2847344 24.780641 5.7148438 32.056641 5.7148438 z M 7.1992188 23.371094 L 23.542969 30.683594 L 28.628906 32.912109 L 32.400391 34.626953 L 35.484375 35.941406 C 36.055375 36.436406 36.34375 37.083766 36.34375 37.884766 C 36.34375 39.029766 35.951875 39.847797 35.171875 40.341797 C 34.389875 40.838797 33.445797 41.085938 32.341797 41.085938 C 29.674797 41.085938 27.291266 40.113875 25.197266 38.171875 L 20.798828 42.628906 C 23.730828 45.143906 26.968719 46.419078 30.511719 46.455078 L 30.511719 51.371094 L 34.226562 51.371094 L 34.226562 46.455078 C 36.435563 46.266078 38.348703 45.531859 39.970703 44.255859 C 41.588703 42.980859 42.606344 41.334453 43.027344 39.314453 L 55.082031 44.685547 C 54.016031 46.630547 52.552547 48.497109 50.685547 50.287109 C 45.464547 55.508109 39.255688 58.115234 32.054688 58.115234 C 24.931687 58.115234 18.760016 55.544391 13.541016 50.400391 C 8.3610156 45.220391 5.7714844 39.087953 5.7714844 32.001953 C 5.7714844 28.877953 6.2472188 25.999094 7.1992188 23.371094 z "
         transform="translate(5.5,-3.5)"
         id="path9" /></g></g></svg>