<?xml version="1.0" encoding="UTF-8" standalone="no"?>
<!-- Generator: Adobe Illustrator 13.0.2, SVG Export Plug-In . SVG Version: 6.00 Build 14948)  -->

<svg
   xmlns:dc="http://purl.org/dc/elements/1.1/"
   xmlns:cc="http://creativecommons.org/ns#"
   xmlns:rdf="http://www.w3.org/1999/02/22-rdf-syntax-ns#"
   xmlns:svg="http://www.w3.org/2000/svg"
   xmlns="http://www.w3.org/2000/svg"
   xmlns:sodipodi="http://sodipodi.sourceforge.net/DTD/sodipodi-0.dtd"
   xmlns:inkscape="http://www.inkscape.org/namespaces/inkscape"
   version="1.0"
   id="Layer_1"
   x="0px"
   y="0px"
   width="64px"
   height="64px"
   viewBox="5.5 -3.5 64 64"
   enable-background="new 5.5 -3.5 64 64"
   xml:space="preserve"
   inkscape:version="0.91 r13725"
   sodipodi:docname="pd.svg"><metadata
     id="metadata45"><rdf:RDF><cc:Work
         rdf:about=""><dc:format>image/svg+xml</dc:format><dc:type
           rdf:resource="http://purl.org/dc/dcmitype/StillImage" /></cc:Work></rdf:RDF></metadata><defs
     id="defs43" /><sodipodi:namedview
     pagecolor="#ffffff"
     bordercolor="#666666"
     borderopacity="1"
     objecttolerance="10"
     gridtolerance="10"
     guidetolerance="10"
     inkscape:pageopacity="0"
     inkscape:pageshadow="2"
     inkscape:window-width="640"
     inkscape:window-height="480"
     id="namedview41"
     showgrid="false"
     inkscape:zoom="3.6875"
     inkscape:cx="32"
     inkscape:cy="32"
     inkscape:window-x="0"
     inkscape:window-y="0"
     inkscape:window-maximized="0"
     inkscape:current-layer="Layer_1" /><g
     id="g33"><g
       id="g37"><path
         d="M 31.943359 0 C 23.104359 0 15.601688 3.0848125 9.4296875 9.2578125 C 3.1446875 15.657813 0 23.239 0 32 C 0 40.762 3.1510313 48.284312 9.4570312 54.570312 C 15.761031 60.856312 23.256359 64 31.943359 64 C 40.779359 64 48.418469 60.818078 54.855469 54.455078 C 60.951469 48.436078 64 40.954 64 32 C 64 23.047 60.903891 15.475156 54.712891 9.2851562 C 48.522891 3.0951563 40.931359 0 31.943359 0 z M 32.029297 5.7714844 C 39.285297 5.7714844 45.466266 8.3237344 50.572266 13.427734 C 55.675266 18.494734 58.228516 24.684047 58.228516 31.998047 C 58.228516 39.350047 55.714547 45.464797 50.685547 50.341797 C 45.427547 55.562797 39.218641 58.169922 32.056641 58.169922 C 24.894641 58.169922 18.723969 55.580438 13.542969 50.398438 C 8.3619688 45.220437 5.7714844 39.087953 5.7714844 32.001953 C 5.7714844 24.915953 8.3815625 18.725687 13.601562 13.429688 C 18.628563 8.3256875 24.772297 5.7714844 32.029297 5.7714844 z M 16.970703 22.972656 L 16.970703 40.685547 L 16.970703 40.6875 L 21.429688 40.6875 L 21.429688 34.972656 L 24.914062 34.972656 C 26.323063 34.972656 27.542313 34.772047 28.570312 34.373047 C 29.599312 33.973047 30.370766 33.459078 30.884766 32.830078 C 31.398766 32.200078 31.761703 31.572359 31.970703 30.943359 C 32.179703 30.313359 32.285156 29.658656 32.285156 28.972656 C 32.285156 24.971656 30.113484 22.972656 25.771484 22.972656 L 16.970703 22.972656 z M 33.484375 22.972656 L 33.484375 40.685547 L 40.34375 40.685547 C 43.16175 40.685547 45.370656 39.962625 46.972656 38.515625 C 48.569656 37.069625 49.369141 34.838125 49.369141 31.828125 C 49.369141 28.819125 48.570656 26.590578 46.972656 25.142578 C 45.370656 23.695578 43.16175 22.972656 40.34375 22.972656 L 33.484375 22.972656 z M 21.371094 26.283203 L 25.029297 26.283203 C 26.934297 26.283203 27.886719 27.180703 27.886719 28.970703 C 27.886719 29.733703 27.657219 30.371766 27.199219 30.884766 C 26.741219 31.398766 26.056578 31.65625 25.142578 31.65625 L 21.371094 31.65625 L 21.371094 26.285156 L 21.371094 26.283203 z M 37.886719 26.685547 L 40.400391 26.6875 C 42.000391 26.6875 43.152422 27.154891 43.857422 28.087891 C 44.562422 29.021891 44.914062 30.268078 44.914062 31.830078 C 44.914062 33.393078 44.562422 34.639266 43.857422 35.572266 C 43.152422 36.507266 42.019031 36.972656 40.457031 36.972656 L 37.886719 36.972656 L 37.886719 26.685547 z "
         transform="translate(5.5,-3.5)"
         id="path39" /></g></g></svg>