<?xml version="1.0" encoding="UTF-8" standalone="no"?>
<!-- Generator: Adobe Illustrator 13.0.2, SVG Export Plug-In . SVG Version: 6.00 Build 14948)  -->

<svg
   xmlns:dc="http://purl.org/dc/elements/1.1/"
   xmlns:cc="http://creativecommons.org/ns#"
   xmlns:rdf="http://www.w3.org/1999/02/22-rdf-syntax-ns#"
   xmlns:svg="http://www.w3.org/2000/svg"
   xmlns="http://www.w3.org/2000/svg"
   xmlns:sodipodi="http://sodipodi.sourceforge.net/DTD/sodipodi-0.dtd"
   xmlns:inkscape="http://www.inkscape.org/namespaces/inkscape"
   version="1.0"
   id="Layer_1"
   x="0px"
   y="0px"
   width="64px"
   height="64px"
   viewBox="5.5 -3.5 64 64"
   enable-background="new 5.5 -3.5 64 64"
   xml:space="preserve"
   inkscape:version="0.91 r13725"
   sodipodi:docname="remix.svg"><metadata
     id="metadata60"><rdf:RDF><cc:Work
         rdf:about=""><dc:format>image/svg+xml</dc:format><dc:type
           rdf:resource="http://purl.org/dc/dcmitype/StillImage" /></cc:Work></rdf:RDF></metadata><defs
     id="defs58" /><sodipodi:namedview
     pagecolor="#ffffff"
     bordercolor="#666666"
     borderopacity="1"
     objecttolerance="10"
     gridtolerance="10"
     guidetolerance="10"
     inkscape:pageopacity="0"
     inkscape:pageshadow="2"
     inkscape:window-width="640"
     inkscape:window-height="480"
     id="namedview56"
     showgrid="false"
     inkscape:zoom="3.6875"
     inkscape:cx="32"
     inkscape:cy="32"
     inkscape:window-x="0"
     inkscape:window-y="0"
     inkscape:window-maximized="0"
     inkscape:current-layer="Layer_1" /><g
     id="g48"><g
       id="g52"><path
         d="M 31.943359 0 C 23.143359 0 15.638687 3.1054062 9.4296875 9.3164062 C 3.1446875 15.716406 0 23.278953 0 32.001953 C 0 40.764953 3.1446875 48.285313 9.4296875 54.570312 C 15.790688 60.856313 23.294359 64 31.943359 64 C 40.779359 64 48.418469 60.837672 54.855469 54.513672 C 60.951469 48.456672 64 40.954 64 32 C 64 23.048 60.893547 15.486453 54.685547 9.3144531 C 48.474547 3.1044531 40.894359 0 31.943359 0 z M 32.056641 5.7714844 C 39.331641 5.7714844 45.503312 8.3413281 50.570312 13.486328 C 55.673312 18.514328 58.226562 24.687 58.226562 32 C 58.226563 39.353 55.712594 45.46775 50.683594 50.34375 C 45.388594 55.56275 39.177687 58.171875 32.054688 58.171875 C 24.892688 58.171875 18.722016 55.582391 13.541016 50.400391 C 8.3610156 45.257391 5.7714844 39.125 5.7714844 32 C 5.7714844 24.954 8.3796094 18.782328 13.599609 13.486328 C 18.628609 8.3433281 24.780641 5.7714844 32.056641 5.7714844 z M 26.972656 13.884766 L 18.285156 17.712891 L 18.285156 26.742188 L 18.34375 26.798828 L 10.685547 30 L 10.685547 38.228516 L 18.857422 41.771484 L 27.142578 38.34375 L 27.714844 38.572266 L 44.457031 45.486328 L 44.857422 45.599609 L 45.199219 45.484375 L 52.970703 42.169922 L 53.542969 41.886719 L 53.542969 32.857422 L 52.914062 32.572266 L 46.572266 29.941406 L 46.572266 21.998047 L 26.972656 13.884766 z M 29.085938 31.199219 L 43.771484 37.199219 L 43.771484 37.429688 L 43.828125 37.429688 L 43.828125 43.083984 L 43.771484 43.029297 L 43.771484 43.087891 L 29.085938 37.029297 L 29.085938 31.199219 z M 45.199219 31.542969 L 49.943359 33.542969 L 44.798828 35.65625 L 40.171875 33.65625 L 45.199219 31.542969 z M 51.542969 35.029297 L 51.542969 40.572266 L 45.828125 43.029297 L 45.828125 37.429688 L 51.542969 35.029297 z "
         transform="translate(5.5,-3.5)"
         id="path54" /></g></g></svg>