<?xml version="1.0" encoding="UTF-8" standalone="no"?>
<!-- Generator: Adobe Illustrator 13.0.2, SVG Export Plug-In . SVG Version: 6.00 Build 14948)  -->

<svg
   xmlns:dc="http://purl.org/dc/elements/1.1/"
   xmlns:cc="http://creativecommons.org/ns#"
   xmlns:rdf="http://www.w3.org/1999/02/22-rdf-syntax-ns#"
   xmlns:svg="http://www.w3.org/2000/svg"
   xmlns="http://www.w3.org/2000/svg"
   xmlns:sodipodi="http://sodipodi.sourceforge.net/DTD/sodipodi-0.dtd"
   xmlns:inkscape="http://www.inkscape.org/namespaces/inkscape"
   version="1.0"
   id="Layer_1"
   x="0px"
   y="0px"
   width="64px"
   height="64px"
   viewBox="5.5 -3.5 64 64"
   enable-background="new 5.5 -3.5 64 64"
   xml:space="preserve"
   inkscape:version="0.91 r13725"
   sodipodi:docname="sa.svg"><metadata
     id="metadata75"><rdf:RDF><cc:Work
         rdf:about=""><dc:format>image/svg+xml</dc:format><dc:type
           rdf:resource="http://purl.org/dc/dcmitype/StillImage" /></cc:Work></rdf:RDF></metadata><defs
     id="defs73" /><sodipodi:namedview
     pagecolor="#ffffff"
     bordercolor="#666666"
     borderopacity="1"
     objecttolerance="10"
     gridtolerance="10"
     guidetolerance="10"
     inkscape:pageopacity="0"
     inkscape:pageshadow="2"
     inkscape:window-width="640"
     inkscape:window-height="480"
     id="namedview71"
     showgrid="false"
     inkscape:zoom="3.6875"
     inkscape:cx="32"
     inkscape:cy="32"
     inkscape:window-x="0"
     inkscape:window-y="0"
     inkscape:window-maximized="0"
     inkscape:current-layer="Layer_1" /><g
     id="g63"><g
       id="g67"><path
         d="M 31.943359 0 C 23.143359 0 15.638687 3.1054062 9.4296875 9.3164062 C 3.1446875 15.716406 0 23.278953 0 32.001953 C 0 40.764953 3.1446875 48.285313 9.4296875 54.570312 C 15.790688 60.856313 23.294359 64 31.943359 64 C 40.779359 64 48.418469 60.837672 54.855469 54.513672 C 60.951469 48.456672 64 40.954 64 32 C 64 23.048 60.893547 15.486453 54.685547 9.3144531 C 48.474547 3.1044531 40.894359 0 31.943359 0 z M 32.056641 5.7714844 C 39.331641 5.7714844 45.503312 8.3413281 50.570312 13.486328 C 55.673312 18.514328 58.226562 24.687 58.226562 32 C 58.226563 39.353 55.712594 45.46775 50.683594 50.34375 C 45.388594 55.56275 39.177687 58.171875 32.054688 58.171875 C 24.892688 58.171875 18.722016 55.582391 13.541016 50.400391 C 8.3610156 45.257391 5.7714844 39.125 5.7714844 32 C 5.7714844 24.954 8.3796094 18.782328 13.599609 13.486328 C 18.628609 8.3433281 24.780641 5.7714844 32.056641 5.7714844 z M 31.826172 15.142578 C 28.168172 15.142578 25.065672 16.219094 22.513672 18.371094 C 19.960672 20.523094 18.380484 23.560375 17.771484 27.484375 L 15.259766 27.484375 L 21.601562 33.826172 L 27.943359 27.484375 L 25.601562 27.484375 C 26.134563 23.713375 28.532781 21.828125 32.800781 21.828125 C 35.164781 21.828125 36.972469 22.713375 38.230469 24.484375 C 39.486469 26.256375 40.115234 28.837516 40.115234 32.228516 C 40.115234 35.465516 39.429641 38.056047 38.056641 39.998047 C 36.685641 41.940047 34.874906 42.912109 32.628906 42.912109 C 28.132906 42.912109 25.789609 40.969984 25.599609 37.083984 L 17.541016 37.083984 C 18.075016 41.083984 19.654203 44.169797 22.283203 46.341797 C 24.911203 48.513797 28.035297 49.597656 31.654297 49.597656 C 36.570297 49.597656 40.56825 47.968891 43.65625 44.712891 C 46.74025 41.456891 48.283203 37.370078 48.283203 32.455078 C 48.283203 27.389078 46.797172 23.236047 43.826172 19.998047 C 40.855172 16.762047 36.853172 15.142578 31.826172 15.142578 z "
         transform="translate(5.5,-3.5)"
         id="path69" /></g></g></svg>