<?xml version="1.0" encoding="UTF-8" standalone="no"?>
<!-- Generator: Adobe Illustrator 13.0.2, SVG Export Plug-In . SVG Version: 6.00 Build 14948)  -->

<svg
   xmlns:dc="http://purl.org/dc/elements/1.1/"
   xmlns:cc="http://creativecommons.org/ns#"
   xmlns:rdf="http://www.w3.org/1999/02/22-rdf-syntax-ns#"
   xmlns:svg="http://www.w3.org/2000/svg"
   xmlns="http://www.w3.org/2000/svg"
   xmlns:sodipodi="http://sodipodi.sourceforge.net/DTD/sodipodi-0.dtd"
   xmlns:inkscape="http://www.inkscape.org/namespaces/inkscape"
   version="1.0"
   id="Layer_1"
   x="0px"
   y="0px"
   width="64px"
   height="64px"
   viewBox="5.5 -3.5 64 64"
   enable-background="new 5.5 -3.5 64 64"
   xml:space="preserve"
   inkscape:version="0.91 r13725"
   sodipodi:docname="sampling.svg"><metadata
     id="metadata90"><rdf:RDF><cc:Work
         rdf:about=""><dc:format>image/svg+xml</dc:format><dc:type
           rdf:resource="http://purl.org/dc/dcmitype/StillImage" /></cc:Work></rdf:RDF></metadata><defs
     id="defs88" /><sodipodi:namedview
     pagecolor="#ffffff"
     bordercolor="#666666"
     borderopacity="1"
     objecttolerance="10"
     gridtolerance="10"
     guidetolerance="10"
     inkscape:pageopacity="0"
     inkscape:pageshadow="2"
     inkscape:window-width="640"
     inkscape:window-height="480"
     id="namedview86"
     showgrid="false"
     inkscape:zoom="3.6875"
     inkscape:cx="32"
     inkscape:cy="32"
     inkscape:window-x="0"
     inkscape:window-y="0"
     inkscape:window-maximized="0"
     inkscape:current-layer="Layer_1" /><g
     id="g78"><g
       id="g82"><path
         d="M 31.943359 0 C 23.104359 0 15.601688 3.0848125 9.4296875 9.2578125 C 3.1446875 15.657813 0 23.239 0 32 C 0 40.762 3.1510313 48.284312 9.4570312 54.570312 C 15.761031 60.856312 23.256359 64 31.943359 64 C 40.779359 64 48.418469 60.818078 54.855469 54.455078 C 60.951469 48.436078 64 40.954 64 32 C 64 23.047 60.903891 15.475156 54.712891 9.2851562 C 48.522891 3.0951563 40.931359 0 31.943359 0 z M 32.029297 5.7714844 C 39.285297 5.7714844 45.466266 8.3237344 50.572266 13.427734 C 55.675266 18.494734 58.228516 24.684047 58.228516 31.998047 C 58.228516 39.350047 55.714547 45.464797 50.685547 50.341797 C 45.427547 55.562797 39.218641 58.169922 32.056641 58.169922 C 24.894641 58.169922 18.723969 55.580438 13.542969 50.398438 C 8.3619688 45.220437 5.7714844 39.087953 5.7714844 32.001953 C 5.7714844 24.915953 8.3815625 18.725687 13.601562 13.429688 C 18.628563 8.3256875 24.772297 5.7714844 32.029297 5.7714844 z M 32.791016 12.626953 C 32.701641 12.618594 32.608922 12.619406 32.513672 12.628906 C 32.169672 12.667906 31.875047 12.800297 31.623047 13.029297 C 31.375047 13.257297 31.251953 13.544719 31.251953 13.886719 L 31.251953 14.115234 L 30.451172 26.742188 L 29.765625 16.34375 L 29.765625 16.171875 C 29.726625 15.828875 29.576594 15.543453 29.308594 15.314453 C 29.042594 15.086453 28.738531 14.972656 28.394531 14.972656 C 28.050531 14.972656 27.754812 15.086453 27.507812 15.314453 C 27.259813 15.542453 27.117078 15.828875 27.080078 16.171875 L 27.080078 16.34375 L 26.222656 28.285156 L 25.59375 19.369141 L 25.59375 19.142578 C 25.59375 18.761578 25.462312 18.438875 25.195312 18.171875 C 24.928312 17.904875 24.605609 17.769531 24.224609 17.769531 C 23.843609 17.769531 23.520906 17.905875 23.253906 18.171875 C 22.986906 18.437875 22.853516 18.761578 22.853516 19.142578 L 21.767578 31.769531 L 21.367188 29.142578 C 21.253187 28.495578 20.863266 28.122344 20.197266 28.027344 C 19.529266 27.932344 19.063875 28.191781 18.796875 28.800781 L 17.025391 32.400391 L 11.253906 32.400391 L 11.253906 35.144531 L 17.882812 35.144531 C 18.492813 35.144531 18.912625 34.896391 19.140625 34.400391 L 19.310547 34.058594 L 20.740234 43.886719 C 20.816234 44.229719 20.978562 44.506844 21.226562 44.714844 C 21.474563 44.924844 21.770281 45.029297 22.113281 45.029297 C 22.456281 45.029297 22.760344 44.914547 23.027344 44.685547 C 23.293344 44.458547 23.446375 44.172125 23.484375 43.828125 L 24.113281 36.515625 L 24.912109 47.943359 L 24.912109 48.113281 L 24.96875 48.113281 L 24.96875 48.285156 C 25.00775 48.628156 25.160734 48.914578 25.427734 49.142578 C 25.693734 49.371578 25.999797 49.484375 26.341797 49.484375 C 26.683797 49.484375 26.978563 49.371578 27.226562 49.142578 C 27.473562 48.915578 27.633938 48.629156 27.710938 48.285156 L 27.710938 48.113281 L 28.396484 37.199219 L 29.138672 48.513672 L 29.138672 48.628906 C 29.138672 49.010906 29.273016 49.340953 29.541016 49.626953 C 29.807016 49.912953 30.128719 50.056641 30.511719 50.056641 C 30.892719 50.056641 31.217422 49.912953 31.482422 49.626953 C 31.747422 49.340953 31.882812 49.010906 31.882812 48.628906 L 31.882812 48.455078 L 32.625 36.226562 L 33.369141 47.369141 L 33.369141 47.542969 C 33.406141 47.884969 33.560172 48.169438 33.826172 48.398438 C 34.092172 48.627437 34.398234 48.740234 34.740234 48.740234 C 35.084234 48.740234 35.378953 48.627437 35.626953 48.398438 C 35.872953 48.170437 36.035281 47.884969 36.113281 47.542969 L 36.798828 38.226562 L 37.597656 48.113281 L 37.597656 48.285156 C 37.636656 48.628156 37.788688 48.911625 38.054688 49.140625 C 38.322688 49.369625 38.62675 49.484375 38.96875 49.484375 C 39.31275 49.484375 39.607469 49.368625 39.855469 49.140625 C 40.103469 48.912625 40.246156 48.626156 40.285156 48.285156 L 41.257812 36.34375 L 41.771484 40.457031 C 41.808484 40.800031 41.933578 41.086453 42.142578 41.314453 C 42.351578 41.542453 42.628703 41.676844 42.970703 41.714844 C 43.692703 41.830844 44.187078 41.542422 44.455078 40.857422 L 46.798828 35.144531 L 53.369141 35.144531 L 53.369141 32.400391 L 45.884766 32.400391 C 45.238766 32.400391 44.801266 32.685813 44.572266 33.257812 L 43.886719 34.914062 L 42.400391 22.457031 C 42.361391 22.114031 42.209406 21.838906 41.941406 21.628906 C 41.675406 21.420906 41.371344 21.314453 41.027344 21.314453 C 40.683344 21.314453 40.388578 21.42725 40.142578 21.65625 C 39.894578 21.88425 39.749891 22.171672 39.712891 22.513672 L 38.96875 30.798828 L 38.228516 20.513672 L 38.228516 20.285156 C 38.228516 19.904156 38.094125 19.581453 37.828125 19.314453 C 37.560125 19.047453 37.236469 18.912109 36.855469 18.912109 C 36.476469 18.912109 36.149766 19.048453 35.884766 19.314453 C 35.619766 19.580453 35.486328 19.904156 35.486328 20.285156 L 34.857422 27.941406 L 34 14.113281 L 34 13.884766 C 33.961 13.504766 33.800625 13.190406 33.515625 12.941406 C 33.300375 12.756156 33.059141 12.652031 32.791016 12.626953 z "
         transform="translate(5.5,-3.5)"
         id="path84" /></g></g></svg>
