<?xml version="1.0" encoding="UTF-8" standalone="no"?>
<!-- Generator: Adobe Illustrator 13.0.2, SVG Export Plug-In . SVG Version: 6.00 Build 14948)  -->

<svg
   xmlns:dc="http://purl.org/dc/elements/1.1/"
   xmlns:cc="http://creativecommons.org/ns#"
   xmlns:rdf="http://www.w3.org/1999/02/22-rdf-syntax-ns#"
   xmlns:svg="http://www.w3.org/2000/svg"
   xmlns="http://www.w3.org/2000/svg"
   xmlns:sodipodi="http://sodipodi.sourceforge.net/DTD/sodipodi-0.dtd"
   xmlns:inkscape="http://www.inkscape.org/namespaces/inkscape"
   version="1.0"
   id="Layer_1"
   x="0px"
   y="0px"
   width="64px"
   height="64px"
   viewBox="5.5 -3.5 64 64"
   enable-background="new 5.5 -3.5 64 64"
   xml:space="preserve"
   inkscape:version="0.91 r13725"
   sodipodi:docname="sampling-plus.svg"><metadata
     id="metadata17"><rdf:RDF><cc:Work
         rdf:about=""><dc:format>image/svg+xml</dc:format><dc:type
           rdf:resource="http://purl.org/dc/dcmitype/StillImage" /></cc:Work></rdf:RDF></metadata><defs
     id="defs15" /><sodipodi:namedview
     pagecolor="#ffffff"
     bordercolor="#666666"
     borderopacity="1"
     objecttolerance="10"
     gridtolerance="10"
     guidetolerance="10"
     inkscape:pageopacity="0"
     inkscape:pageshadow="2"
     inkscape:window-width="1171"
     inkscape:window-height="690"
     id="namedview13"
     showgrid="false"
     inkscape:zoom="3.6875"
     inkscape:cx="7.8644068"
     inkscape:cy="32"
     inkscape:window-x="0"
     inkscape:window-y="0"
     inkscape:window-maximized="0"
     inkscape:current-layer="Layer_1" /><g
     id="g3"><g
       id="g7"><path
         d="M 31.960938 0 C 23.096937 0 15.593172 3.0922969 9.4511719 9.2792969 C 3.1501719 15.679297 0 23.253 0 32 C 0 40.748 3.1501719 48.269547 9.4511719 54.560547 C 15.752172 60.855547 23.255938 64 31.960938 64 C 40.771937 64 48.407141 60.826469 54.869141 54.480469 C 60.954141 48.452469 64 40.959 64 32 C 64 23.04 60.901984 15.466297 54.708984 9.2792969 C 48.513984 3.0922969 40.932938 0 31.960938 0 z M 32.039062 5.7597656 C 39.302062 5.7597656 45.469969 8.3184531 50.542969 13.439453 C 55.667969 18.505453 58.230469 24.692 58.230469 32 C 58.230469 39.359 55.723125 45.468312 50.703125 50.320312 C 45.416125 55.548313 39.193062 58.160156 32.039062 58.160156 C 24.883063 58.160156 18.716109 55.571391 13.537109 50.400391 C 8.3561094 45.227391 5.7675781 39.091 5.7675781 32 C 5.7675781 24.906 8.3831875 18.718453 13.617188 13.439453 C 18.637187 8.3184531 24.776062 5.7597656 32.039062 5.7597656 z M 32.630859 12.498047 C 31.837859 12.500047 31.184719 13.116203 31.136719 13.908203 L 30.476562 24.707031 L 29.919922 16.15625 C 29.868922 15.36525 29.216781 14.753906 28.425781 14.753906 C 27.633781 14.753906 26.979734 15.363297 26.927734 16.154297 L 26.246094 26.5 L 25.712891 19.150391 C 25.653891 18.370391 25.009516 17.765766 24.228516 17.759766 C 23.445516 17.754766 22.789656 18.349859 22.722656 19.130859 L 21.724609 30.720703 L 21.494141 29.144531 C 21.396141 28.491531 20.888375 27.979859 20.234375 27.880859 C 19.579375 27.781859 18.93925 28.12175 18.65625 28.71875 L 16.958984 32.289062 L 11.292969 32.289062 L 11.292969 35.287109 L 17.90625 35.287109 C 18.47025 35.287109 18.990141 34.97075 19.244141 34.46875 L 20.630859 43.904297 C 20.741859 44.655297 21.400203 45.206594 22.158203 45.183594 C 22.919203 45.160594 23.541375 44.570406 23.609375 43.816406 L 24.09375 38.195312 L 24.824219 48.302734 C 24.884219 49.088734 25.538172 49.697359 26.326172 49.693359 C 27.115172 49.691359 27.767359 49.076969 27.818359 48.292969 L 28.417969 39.203125 L 29.033203 48.667969 C 29.084203 49.456969 29.741203 50.070359 30.533203 50.068359 C 31.326203 50.068359 31.978344 49.449156 32.027344 48.660156 L 32.660156 38.277344 L 33.242188 47.539062 C 33.290188 48.322063 33.941516 48.937359 34.728516 48.943359 C 35.514516 48.950359 36.173375 48.340594 36.234375 47.558594 L 36.822266 39.994141 L 37.453125 48.306641 C 37.511125 49.088641 38.158453 49.691359 38.939453 49.693359 C 39.723453 49.697359 40.376453 49.097359 40.439453 48.318359 L 41.322266 37.613281 L 41.666016 40.494141 C 41.745016 41.174141 42.271219 41.708687 42.949219 41.804688 C 43.627219 41.897688 44.279063 41.524578 44.539062 40.892578 L 46.863281 35.291016 L 53.378906 35.291016 L 53.378906 32.292969 L 45.861328 32.292969 L 45.861328 32.291016 C 45.254328 32.291016 44.706563 32.656797 44.476562 33.216797 L 43.966797 34.443359 L 42.542969 22.464844 C 42.449969 21.700844 41.794484 21.128578 41.021484 21.142578 C 40.254484 21.157578 39.618641 21.751531 39.556641 22.519531 L 39.007812 29.15625 L 38.335938 20.275391 C 38.274938 19.496391 37.62575 18.888672 36.84375 18.888672 C 36.05875 18.886672 35.406703 19.491484 35.345703 20.271484 L 34.894531 26.066406 L 34.128906 13.904297 C 34.078906 13.113297 33.425859 12.498047 32.630859 12.498047 z M 32.001953 27.236328 C 32.533953 27.236328 32.964844 27.667172 32.964844 28.201172 L 32.964844 31.033203 L 35.796875 31.033203 C 36.329875 31.033203 36.761719 31.466953 36.761719 32.001953 C 36.761719 32.533953 36.329875 32.964844 35.796875 32.964844 L 32.964844 32.964844 L 32.964844 35.796875 C 32.964844 36.330875 32.533953 36.761719 32.001953 36.761719 C 31.467953 36.761719 31.033203 36.330875 31.033203 35.796875 L 31.033203 32.964844 L 28.203125 32.964844 C 27.670125 32.964844 27.236328 32.533953 27.236328 32.001953 C 27.236328 31.467953 27.670125 31.033203 28.203125 31.033203 L 31.033203 31.033203 L 31.033203 28.201172 C 31.033203 27.667172 31.467953 27.236328 32.001953 27.236328 z "
         transform="translate(5.5,-3.5)"
         id="path9" /></g></g></svg>