<?xml version="1.0" encoding="UTF-8" standalone="no"?>
<!-- Generator: Adobe Illustrator 13.0.2, SVG Export Plug-In . SVG Version: 6.00 Build 14948)  -->

<svg
   xmlns:dc="http://purl.org/dc/elements/1.1/"
   xmlns:cc="http://creativecommons.org/ns#"
   xmlns:rdf="http://www.w3.org/1999/02/22-rdf-syntax-ns#"
   xmlns:svg="http://www.w3.org/2000/svg"
   xmlns="http://www.w3.org/2000/svg"
   xmlns:sodipodi="http://sodipodi.sourceforge.net/DTD/sodipodi-0.dtd"
   xmlns:inkscape="http://www.inkscape.org/namespaces/inkscape"
   version="1.0"
   id="Layer_1"
   x="0px"
   y="0px"
   width="64px"
   height="64px"
   viewBox="5.5 -3.5 64 64"
   enable-background="new 5.5 -3.5 64 64"
   xml:space="preserve"
   inkscape:version="0.91 r13725"
   sodipodi:docname="share.svg"><metadata
     id="metadata105"><rdf:RDF><cc:Work
         rdf:about=""><dc:format>image/svg+xml</dc:format><dc:type
           rdf:resource="http://purl.org/dc/dcmitype/StillImage" /></cc:Work></rdf:RDF></metadata><defs
     id="defs103" /><sodipodi:namedview
     pagecolor="#ffffff"
     bordercolor="#666666"
     borderopacity="1"
     objecttolerance="10"
     gridtolerance="10"
     guidetolerance="10"
     inkscape:pageopacity="0"
     inkscape:pageshadow="2"
     inkscape:window-width="640"
     inkscape:window-height="480"
     id="namedview101"
     showgrid="false"
     inkscape:zoom="3.6875"
     inkscape:cx="32"
     inkscape:cy="32"
     inkscape:window-x="0"
     inkscape:window-y="0"
     inkscape:window-maximized="0"
     inkscape:current-layer="Layer_1" /><g
     id="g93"><g
       id="g97"><path
         d="M 31.943359 0 C 23.143359 0 15.638687 3.1054062 9.4296875 9.3164062 C 3.1446875 15.716406 0 23.278953 0 32.001953 C 0 40.764953 3.1446875 48.285313 9.4296875 54.570312 C 15.790688 60.856313 23.294359 64 31.943359 64 C 40.779359 64 48.418469 60.837672 54.855469 54.513672 C 60.951469 48.456672 64 40.954 64 32 C 64 23.048 60.893547 15.486453 54.685547 9.3144531 C 48.474547 3.1044531 40.894359 0 31.943359 0 z M 32.056641 5.7714844 C 39.331641 5.7714844 45.503312 8.3413281 50.570312 13.486328 C 55.673312 18.514328 58.226562 24.687 58.226562 32 C 58.226563 39.353 55.712594 45.46775 50.683594 50.34375 C 45.388594 55.56275 39.177687 58.171875 32.054688 58.171875 C 24.892688 58.171875 18.722016 55.582391 13.541016 50.400391 C 8.3610156 45.257391 5.7714844 39.125 5.7714844 32 C 5.7714844 24.954 8.3796094 18.782328 13.599609 13.486328 C 18.628609 8.3433281 24.780641 5.7714844 32.056641 5.7714844 z M 18.742188 14.115234 C 18.285188 14.192234 17.902609 14.391844 17.599609 14.714844 C 17.292609 15.037844 17.142578 15.428719 17.142578 15.886719 L 17.142578 39.425781 C 17.142578 39.922781 17.31425 40.341594 17.65625 40.683594 C 17.99925 41.026594 18.417063 41.197266 18.914062 41.197266 L 25.884766 41.197266 L 25.884766 48.169922 C 25.884766 48.664922 26.054437 49.082781 26.398438 49.425781 C 26.742437 49.770781 27.16025 49.941406 27.65625 49.941406 L 45.085938 49.941406 C 45.579938 49.941406 45.999797 49.768781 46.341797 49.425781 C 46.685797 49.083781 46.857422 48.664922 46.857422 48.169922 L 46.857422 24.628906 C 46.857422 24.133906 46.685797 23.712141 46.341797 23.369141 C 45.999797 23.027141 45.579937 22.857422 45.085938 22.857422 L 45.085938 22.859375 L 38.113281 22.859375 L 38.113281 15.886719 C 38.113281 15.391719 37.941609 14.970906 37.599609 14.628906 C 37.255609 14.285906 36.835797 14.115234 36.341797 14.115234 L 18.912109 14.115234 L 18.742188 14.115234 z M 20.628906 17.65625 L 34.628906 17.65625 L 34.628906 22.857422 L 27.65625 22.857422 L 27.427734 22.857422 C 27.009734 22.934422 26.64775 23.135031 26.34375 23.457031 C 26.03675 23.781031 25.884766 24.171906 25.884766 24.628906 L 25.884766 37.714844 L 20.628906 37.714844 L 20.628906 17.65625 z M 29.371094 26.341797 L 43.371094 26.341797 L 43.371094 46.400391 L 29.371094 46.400391 L 29.371094 26.341797 z "
         transform="translate(5.5,-3.5)"
         id="path99" /></g></g></svg>