<?xml version="1.0" encoding="UTF-8" standalone="no"?>
<!-- Generator: Adobe Illustrator 13.0.2, SVG Export Plug-In . SVG Version: 6.00 Build 14948)  -->

<svg
   xmlns:dc="http://purl.org/dc/elements/1.1/"
   xmlns:cc="http://creativecommons.org/ns#"
   xmlns:rdf="http://www.w3.org/1999/02/22-rdf-syntax-ns#"
   xmlns:svg="http://www.w3.org/2000/svg"
   xmlns="http://www.w3.org/2000/svg"
   xmlns:sodipodi="http://sodipodi.sourceforge.net/DTD/sodipodi-0.dtd"
   xmlns:inkscape="http://www.inkscape.org/namespaces/inkscape"
   version="1.0"
   id="Layer_1"
   x="0px"
   y="0px"
   width="64px"
   height="64px"
   viewBox="5.5 -3.5 64 64"
   enable-background="new 5.5 -3.5 64 64"
   xml:space="preserve"
   inkscape:version="0.91 r13725"
   sodipodi:docname="zero.svg"><metadata
     id="metadata118"><rdf:RDF><cc:Work
         rdf:about=""><dc:format>image/svg+xml</dc:format><dc:type
           rdf:resource="http://purl.org/dc/dcmitype/StillImage" /></cc:Work></rdf:RDF></metadata><defs
     id="defs116" /><sodipodi:namedview
     pagecolor="#ffffff"
     bordercolor="#666666"
     borderopacity="1"
     objecttolerance="10"
     gridtolerance="10"
     guidetolerance="10"
     inkscape:pageopacity="0"
     inkscape:pageshadow="2"
     inkscape:window-width="1197"
     inkscape:window-height="727"
     id="namedview114"
     showgrid="false"
     inkscape:zoom="1.3037281"
     inkscape:cx="-94.299666"
     inkscape:cy="32"
     inkscape:window-x="0"
     inkscape:window-y="0"
     inkscape:window-maximized="0"
     inkscape:current-layer="Layer_1" /><g
     id="g108"
     transform="translate(6,-3.9990235)"><path
       d="M 31.933594 0 C 23.056594 0 15.573516 3.0907815 9.4785156 9.3007812 C 6.3915156 12.387781 4.0354844 15.907031 2.3964844 19.832031 C 0.79648429 23.719031 -2.9605947e-16 27.771 0 32 C 0 36.268 0.7964843 40.321922 2.3964844 44.169922 C 3.9964844 48.019922 6.3172344 51.480453 9.3652344 54.564453 C 12.450234 57.613453 15.914672 59.963563 19.763672 61.601562 C 23.649672 63.203562 27.703594 64 31.933594 64 C 36.162594 64 40.273328 63.172203 44.236328 61.533203 C 48.198328 59.894203 51.732422 57.540125 54.857422 54.453125 C 57.868422 51.520125 60.146922 48.156656 61.669922 44.347656 C 63.230922 40.500656 64 36.383 64 32 C 64 27.657 63.229922 23.548219 61.669922 19.699219 C 60.107922 15.814219 57.8215 12.377187 54.8125 9.3671875 C 48.5245 3.1191875 40.885594 0 31.933594 0 z M 32.066406 5.7597656 C 39.304406 5.7597656 45.479094 8.32575 50.621094 13.46875 C 53.098094 15.94575 54.996016 18.778453 56.291016 21.939453 C 57.587016 25.101453 58.240234 28.457 58.240234 32 C 58.240234 39.354 55.724375 45.454078 50.734375 50.330078 C 48.142375 52.846078 45.232141 54.777328 41.994141 56.111328 C 38.794141 57.445328 35.495406 58.107422 32.066406 58.107422 C 28.598406 58.107422 25.278185 57.45125 22.117188 56.15625 C 18.954186 54.82225 16.116563 52.919406 13.601562 50.441406 C 11.086564 47.927406 9.1463906 45.088781 7.7753906 41.925781 C 6.4423906 38.726781 5.7597656 35.429 5.7597656 32 C 5.7597656 28.533 6.4423906 25.210828 7.7753906 22.048828 C 9.1463906 18.848828 11.087562 15.975875 13.601562 13.421875 C 18.591563 8.318875 24.751406 5.7597656 32.066406 5.7597656 z M 32 13.580078 C 21.435 13.580078 18.777344 23.549 18.777344 32 C 18.777344 40.452 21.434 50.421875 32 50.421875 C 42.564 50.421875 45.220703 40.452 45.220703 32 C 45.220703 23.549 42.564 13.580078 32 13.580078 z M 32 20.527344 C 32.429 20.527344 32.8195 20.594544 33.1875 20.685547 C 33.9485 21.341547 34.321797 22.243859 33.591797 23.505859 L 26.554688 36.4375 C 26.338687 34.8015 26.308594 33.197 26.308594 32 C 26.308594 28.278 26.566 20.527344 32 20.527344 z M 37.265625 26.486328 C 37.638625 28.470328 37.691406 30.543 37.691406 32 C 37.691406 35.723 37.433953 43.474609 32.001953 43.474609 C 31.573953 43.474609 31.180453 43.432789 30.814453 43.341797 C 30.744453 43.320797 30.679328 43.295484 30.611328 43.271484 C 30.499328 43.239484 30.381391 43.204114 30.275391 43.162109 C 29.065391 42.647109 28.304344 41.715359 29.402344 40.068359 L 37.265625 26.486328 z "
       transform="translate(-0.5,0.4990235)"
       id="text2809_1_" /></g></svg>
